<svg width="10" height="10" viewBox="0 0 10 10" fill="none" xmlns="http://www.w3.org/2000/svg">
<path d="M0.138949 8.31535L1.54884 9.71393C1.75696 9.92737 2.03282 9.99967 2.30147 10C3.48957 9.96441 4.61258 9.3808 5.53465 8.78154C7.04817 7.68046 8.43688 6.31517 9.30847 4.66527C9.64275 3.97341 10.035 3.09065 9.99751 2.31841C9.99417 2.02791 9.91588 1.7428 9.71129 1.55555L8.30141 0.146374C8.00864 -0.102651 7.72552 -0.0165512 7.53817 0.273515L6.40391 2.42437C6.28452 2.67917 6.35301 2.95219 6.53112 3.13427L7.05056 3.65343C7.08262 3.69736 7.10304 3.74736 7.10356 3.80177C6.90437 4.57279 6.30095 5.28343 5.76788 5.77249C5.23482 6.26156 4.66184 6.92414 3.91807 7.081C3.82614 7.10664 3.71353 7.11565 3.64776 7.05451L3.04351 6.43998C2.83521 6.28211 2.53446 6.20494 2.31208 6.33403H2.30148L0.255566 7.54189C-0.044776 7.73016 -0.0760927 8.09399 0.138949 8.31535Z" fill="#FF8A1F"/>
</svg>
