<svg width="18" height="16" viewBox="0 0 18 16" fill="none" xmlns="http://www.w3.org/2000/svg">
<path d="M17.9401 2.45975C17.4501 3.18975 16.8301 3.83975 16.1101 4.35975C16.1201 4.50975 16.1201 4.66975 16.1201 4.82975C16.1201 9.67975 12.4301 15.2697 5.69006 15.2697C3.62006 15.2697 1.69006 14.6597 0.0600586 13.6197C0.350059 13.6497 0.640059 13.6697 0.940059 13.6697C2.66006 13.6697 4.24006 13.0797 5.49006 12.0997C4.7254 12.0839 3.98478 11.8297 3.37163 11.3725C2.75849 10.9153 2.30345 10.2781 2.07006 9.54975C2.29006 9.58975 2.52006 9.61975 2.76006 9.61975C3.09006 9.61975 3.42006 9.56975 3.72006 9.48975C2.89066 9.31949 2.14534 8.86843 1.60978 8.21264C1.07421 7.55685 0.78117 6.73644 0.780059 5.88975V5.84975C1.28006 6.11975 1.84006 6.28975 2.44006 6.30975C1.93786 5.97288 1.52642 5.51745 1.24212 4.98373C0.957816 4.45001 0.809422 3.85446 0.810059 3.24975C0.810059 2.57975 0.990059 1.94975 1.31006 1.40975C3.12006 3.62975 5.82006 5.08975 8.87006 5.23975C8.81006 4.96975 8.77006 4.68975 8.77006 4.39975C8.77271 3.42814 9.16053 2.49722 9.84851 1.81113C10.5365 1.12503 11.4684 0.739742 12.4401 0.739746C13.5001 0.739746 14.4501 1.17975 15.1201 1.89975C15.9501 1.72975 16.7401 1.42975 17.4501 1.00975C17.1701 1.85975 16.5901 2.57975 15.8301 3.02975C16.5587 2.95011 17.2705 2.75782 17.9401 2.45975Z" fill="#FDF5F5"/>
</svg>
